<?xml version="1.0" standalone="no"?>
<!DOCTYPE svg PUBLIC "-//W3C//DTD SVG 20010904//EN"
 "http://www.w3.org/TR/2001/REC-SVG-20010904/DTD/svg10.dtd">
<svg version="1.0" xmlns="http://www.w3.org/2000/svg"
 width="666.000000pt" height="666.000000pt" viewBox="0 0 666.000000 666.000000"
 preserveAspectRatio="xMidYMid meet">
<metadata>
Created by potrace 1.14, written by Peter Selinger 2001-2017
</metadata>
<g transform="translate(0.000000,666.000000) scale(0.100000,-0.100000)"
fill="#000000" stroke="none">
<path d="M0 3330 l0 -3330 3330 0 3330 0 0 3330 0 3330 -3330 0 -3330 0 0
-3330z m2536 2605 c3 -13 12 -26 20 -29 8 -3 14 -14 14 -24 0 -20 33 -56 43
-46 3 3 12 -8 21 -24 8 -16 26 -32 40 -36 13 -3 52 -33 87 -65 53 -50 65 -57
80 -48 23 14 24 14 53 -65 26 -68 25 -78 -6 -78 -21 0 -23 -25 -8 -82 14 -47
24 -54 49 -29 11 11 32 23 45 27 18 4 29 17 37 42 6 21 22 60 34 87 56 122 66
149 75 197 13 69 43 103 52 61 3 -13 11 -5 27 27 54 104 111 161 111 111 0
-14 5 -18 20 -14 31 8 67 -31 105 -112 58 -125 77 -214 54 -257 -10 -18 -9
-20 5 -15 9 4 16 2 16 -3 0 -6 -10 -10 -22 -10 -15 0 -31 -12 -45 -35 -31 -47
-29 -55 10 -55 19 0 37 -3 41 -7 4 -5 13 -8 19 -8 8 0 11 -16 9 -43 -2 -28 1
-41 8 -37 6 3 10 -3 10 -15 0 -12 9 -33 20 -47 34 -43 19 -94 -16 -58 -12 11
-20 13 -27 6 -13 -13 20 -199 40 -221 11 -12 13 -11 13 9 0 12 5 31 10 41 8
14 6 29 -5 55 -14 35 -14 37 18 83 21 31 37 72 46 116 11 55 18 70 37 78 14 7
27 23 30 37 32 142 42 168 80 214 13 16 24 42 24 57 0 20 7 33 23 41 12 7 35
23 50 35 30 25 77 32 77 13 0 -8 4 -8 13 -1 6 5 27 13 44 17 18 3 35 10 38 15
3 5 39 6 80 3 66 -5 78 -3 98 14 12 11 43 23 69 26 40 6 51 3 67 -14 15 -16
36 -21 110 -26 68 -4 94 -10 106 -23 9 -10 24 -16 35 -13 10 3 32 -4 47 -15
51 -36 122 -62 153 -56 25 5 36 -1 80 -45 28 -28 48 -56 45 -61 -3 -6 -1 -10
4 -10 6 0 42 -29 80 -65 63 -60 72 -65 113 -65 24 0 52 -6 63 -13 24 -19 10
-40 -21 -33 -13 4 -24 4 -24 0 0 -4 19 -40 42 -80 39 -68 44 -73 72 -71 23 1
30 -2 27 -13 -10 -32 -2 -109 12 -131 21 -31 33 -149 19 -176 -7 -13 -8 -33
-1 -62 10 -45 0 -76 -32 -98 -15 -11 -16 -18 -6 -48 10 -32 8 -38 -17 -64 -22
-23 -28 -39 -30 -82 -4 -85 -22 -112 -80 -122 -56 -9 -81 -3 -72 18 3 8 3 15
1 15 -11 0 -49 -27 -88 -63 -23 -22 -54 -45 -69 -53 -16 -8 -28 -19 -28 -23 0
-16 -66 -51 -95 -51 -15 0 -40 -11 -57 -25 -16 -14 -40 -25 -53 -25 -13 0 -27
-4 -30 -10 -8 -13 38 -13 51 -1 5 6 26 17 47 26 l37 15 0 -34 c0 -30 -6 -38
-38 -58 -22 -13 -37 -28 -35 -35 2 -6 -10 -19 -26 -28 -34 -17 -161 -122 -200
-163 l-24 -26 8 24 c12 40 17 46 79 94 45 35 54 46 38 46 -11 0 -28 -10 -36
-22 -12 -17 -18 -20 -28 -10 -15 15 -54 16 -63 2 -4 -6 5 -10 19 -10 57 0 8
-49 -52 -53 -23 -1 -42 -3 -42 -4 0 -1 3 -8 6 -17 5 -12 10 -13 26 -5 31 17
41 5 19 -23 -12 -14 -21 -31 -21 -37 0 -6 -7 -11 -16 -11 -12 0 -15 7 -11 26
4 23 2 25 -19 20 -13 -3 -36 -9 -51 -12 -52 -11 -56 -13 -44 -27 5 -7 8 -29 5
-48 -7 -41 4 -53 59 -63 27 -5 37 -4 32 3 -3 6 -19 11 -36 11 -24 0 -29 4 -29
25 0 26 39 75 60 75 6 0 13 -6 16 -14 3 -7 23 -16 45 -20 44 -7 90 12 169 69
25 18 72 48 105 66 55 31 58 34 33 37 -27 3 -27 4 -14 30 33 64 77 77 96 28
13 -35 22 -37 74 -20 37 13 46 20 46 39 0 13 4 26 9 29 16 10 41 -5 41 -25 0
-10 5 -19 10 -19 6 0 10 -9 10 -20 0 -23 -55 -50 -104 -50 -74 0 -181 -41
-305 -117 -68 -42 -140 -82 -160 -89 -25 -8 -42 -23 -57 -50 -21 -40 -44 -48
-89 -29 -19 8 -19 8 -2 -12 24 -27 21 -34 -8 -23 -20 7 -25 6 -25 -5 0 -25
-17 -16 -25 13 l-7 27 -10 -25 c-11 -29 -25 -40 -55 -40 -18 0 -23 7 -28 44
-4 25 -4 49 0 55 3 6 -3 23 -14 37 -12 15 -21 35 -21 45 0 11 -4 19 -9 19 -10
0 -54 69 -54 85 0 6 3 23 7 39 6 25 5 28 -13 23 -16 -4 -23 3 -37 40 -15 39
-16 53 -5 111 9 46 9 68 2 70 -14 5 -14 59 -1 67 11 7 8 117 -5 147 -3 9 -19
21 -35 27 -25 8 -29 7 -32 -11 -4 -29 -36 -48 -48 -28 -7 11 -11 9 -19 -14 -6
-15 -8 -32 -5 -38 4 -6 2 -8 -4 -4 -6 4 -17 -22 -29 -71 -19 -82 -53 -133 -88
-133 -29 0 -12 102 39 232 42 108 73 224 63 234 -8 8 -77 -179 -77 -208 0 -15
-7 -46 -16 -69 -13 -31 -21 -39 -35 -36 -20 5 -56 -27 -40 -37 5 -3 17 -30 26
-59 10 -28 22 -56 29 -62 6 -5 21 -31 33 -56 l21 -46 -21 -21 c-21 -22 -21
-22 -2 -37 17 -12 18 -16 6 -24 -11 -7 -6 -10 20 -13 23 -2 35 -9 37 -21 3
-16 1 -17 -17 -7 -18 9 -21 8 -21 -11 0 -15 -5 -19 -15 -15 -11 4 -15 -2 -15
-20 0 -21 3 -24 21 -19 17 6 20 3 17 -12 -2 -10 -9 -17 -15 -16 -6 1 -9 -6 -6
-17 4 -14 0 -20 -11 -20 -9 0 -16 7 -16 15 0 10 -11 15 -35 15 -20 0 -35 -5
-35 -11 0 -9 -26 -10 -95 -5 -57 4 -122 2 -164 -5 -61 -10 -70 -15 -76 -36 -3
-14 0 -32 8 -44 12 -17 16 -17 26 -5 7 8 20 12 28 9 13 -5 11 -11 -13 -29 -29
-23 -29 -24 -12 -56 42 -84 61 -188 35 -188 -18 0 -49 67 -95 205 l-10 30 -7
-32 c-12 -55 -33 -39 -62 47 -18 55 -38 69 -38 27 0 -31 -13 -47 -37 -47 -26
0 -98 40 -98 54 0 6 11 34 24 62 25 53 24 75 -3 194 -5 25 -9 87 -9 137 1 51
-1 95 -5 99 -10 11 -8 72 3 79 5 3 7 12 3 20 -3 8 -1 15 5 15 5 0 8 15 6 33
-1 17 -3 42 -3 54 -1 35 -38 18 -45 -22 -4 -18 -15 -43 -26 -56 -11 -13 -35
-42 -54 -64 -35 -42 -106 -203 -106 -242 0 -31 -33 -30 -50 1 -14 27 -46 40
-57 23 -4 -7 -7 -28 -8 -47 0 -28 -4 -36 -22 -38 -19 -3 -22 3 -27 40 -5 38
-14 148 -15 201 -2 36 -21 5 -21 -33 0 -31 -4 -38 -18 -37 -23 1 -27 44 -11
107 10 40 9 49 -9 78 -11 20 -23 29 -26 23 -4 -6 -5 -15 -1 -20 3 -6 -15 -19
-40 -30 -30 -13 -45 -26 -45 -38 0 -10 -7 -29 -16 -41 -14 -21 -14 -24 11 -54
16 -19 25 -40 23 -56 -4 -37 -24 -38 -37 -2 -12 35 -31 32 -31 -5 0 -13 -5
-25 -11 -27 -7 -2 2 -19 20 -38 17 -19 31 -38 31 -42 0 -4 -13 -14 -30 -23
-16 -9 -30 -17 -30 -18 -1 -1 -7 -36 -14 -78 -8 -42 -12 -87 -9 -101 4 -19 -4
-32 -37 -62 -27 -25 -45 -34 -53 -28 -15 11 -107 3 -107 -9 0 -5 10 -9 22 -9
20 0 21 -1 6 -16 -13 -13 -20 -14 -38 -4 -32 17 -177 25 -222 12 -23 -6 -40
-7 -44 -1 -3 5 -13 5 -24 -1 -10 -5 -37 -10 -60 -10 -44 0 -54 -22 -13 -28 18
-3 23 -13 30 -65 l8 -62 65 3 c47 2 61 0 50 -7 -8 -6 -22 -11 -30 -11 -8 0
-32 -5 -53 -11 l-38 -10 21 -37 c12 -20 16 -31 9 -24 -8 8 -44 12 -101 12 -98
0 -108 7 -108 74 0 19 -5 36 -11 38 -9 3 -9 18 -3 53 7 40 14 50 32 55 43 10
77 140 49 183 -8 12 -18 51 -22 85 l-7 62 37 0 c32 0 38 4 50 34 8 19 26 42
41 53 l26 19 -36 93 c-44 114 -44 121 -6 121 27 0 33 6 55 55 20 42 31 55 48
55 32 0 44 11 53 45 4 17 10 35 14 40 4 6 10 22 14 38 4 15 15 36 26 47 16 16
17 20 5 20 -8 0 -15 9 -15 19 0 11 -5 21 -12 23 -9 3 -9 20 0 71 9 55 18 77
50 115 28 34 42 63 50 104 7 36 20 65 36 82 37 36 32 56 -4 21 -38 -36 -47
-28 -20 18 14 24 23 58 25 99 5 94 25 141 63 153 l32 9 0 88 0 88 29 0 c39 0
43 8 35 76 -5 43 -11 58 -26 62 -23 6 -23 10 8 95 33 95 46 111 79 103 20 -5
25 -11 20 -26 -3 -11 -2 -27 3 -36 8 -14 13 -7 26 32 24 73 43 97 66 84 11 -6
22 -21 26 -35z m1117 -447 c23 -12 22 -41 -3 -70 -11 -12 -27 -32 -36 -43 -8
-11 -13 -14 -9 -7 4 7 0 12 -9 12 -9 0 -16 -8 -16 -17 -1 -10 -7 -2 -14 18
-13 38 -10 95 6 116 10 13 46 9 81 -9z m1467 -1047 c0 -31 -34 -61 -69 -61
-11 0 -22 -8 -25 -18 -7 -19 -56 -52 -79 -52 -8 0 -17 -9 -20 -19 -3 -11 -17
-22 -37 -26 -69 -15 -52 17 50 95 59 45 86 60 100 55 15 -5 20 -2 20 14 0 21
37 54 52 45 4 -3 8 -18 8 -33z m-1214 -3 c-4 -18 -12 -60 -17 -93 -11 -65 -31
-97 -50 -78 -8 8 -7 19 3 39 8 16 21 56 28 89 16 70 18 75 32 75 7 0 8 -12 4
-32z m1144 28 c0 -2 -8 -10 -17 -17 -16 -13 -17 -12 -4 4 13 16 21 21 21 13z
m-1137 -373 c-15 -117 -43 -175 -51 -108 -4 30 35 155 49 155 5 0 6 -21 2 -47z
m-1403 -7 c0 -2 -8 -10 -17 -17 -16 -13 -17 -12 -4 4 13 16 21 21 21 13z
m2534 -71 c53 -23 73 -45 42 -45 -29 0 -126 43 -126 56 0 20 20 17 84 -11z
m-1654 -145 c0 -5 -8 -10 -17 -10 -15 0 -16 2 -3 10 19 12 20 12 20 0z m224
-25 c-1 -31 -12 -114 -20 -153 -4 -19 -7 -21 -25 -11 -12 6 -34 9 -49 7 -27
-4 -27 -3 -29 54 -1 32 3 77 9 99 l11 40 52 -3 c51 -3 52 -4 51 -33z m237 -81
c-3 -45 -3 -46 19 -34 25 13 31 9 50 -38 10 -25 10 -35 0 -47 -17 -20 -57 -19
-69 3 -13 24 -68 55 -76 42 -3 -5 -4 -14 0 -19 8 -14 -25 -43 -44 -39 -9 2
-17 15 -19 29 -2 17 -12 28 -34 37 l-31 12 27 25 c33 30 46 25 47 -18 l1 -32
8 28 c11 38 29 57 45 51 8 -3 24 6 36 20 33 38 45 33 40 -20z m-1255 21 c4 -8
3 -26 0 -40 -8 -31 -73 -105 -92 -105 -25 0 -27 28 -5 56 12 15 21 33 21 41 0
16 44 63 60 63 6 0 13 -7 16 -15z m-612 -34 c3 -5 -1 -12 -10 -15 -27 -11 -37
-7 -24 9 14 17 26 19 34 6z m2333 -103 c39 -14 40 -24 17 -127 -10 -44 -21
-71 -29 -71 -14 0 -65 142 -65 179 0 31 26 37 77 19z m-2083 -27 c6 -10 -92
-45 -156 -57 -30 -5 -38 -3 -38 9 0 19 18 26 100 42 86 16 88 16 94 6z m-307
-93 c-3 -8 -6 -5 -6 6 -1 11 2 17 5 13 3 -3 4 -12 1 -19z m-492 -315 c13 -16
26 -45 29 -66 5 -31 10 -37 25 -32 14 4 25 -8 53 -62 19 -38 38 -81 42 -98 4
-16 9 -38 12 -47 4 -12 0 -18 -10 -18 -15 0 -15 -3 0 -37 9 -21 20 -51 25 -67
4 -15 16 -35 26 -43 10 -8 13 -12 6 -8 -9 4 -10 -1 -2 -25 6 -16 15 -28 19
-25 11 7 22 -24 14 -37 -5 -7 2 -9 20 -4 24 6 28 3 45 -36 17 -39 17 -44 3
-55 -25 -20 -29 -16 -28 24 1 29 -3 38 -18 41 -16 3 -18 0 -13 -27 4 -17 25
-79 47 -138 22 -59 40 -115 40 -125 0 -15 3 -17 19 -8 27 14 27 14 56 -17 34
-38 33 -78 -2 -97 -26 -14 -27 -15 -5 -16 25 0 29 -12 7 -30 -11 -9 -12 -17
-4 -32 8 -15 8 -22 -1 -28 -9 -6 -9 -13 2 -31 23 -42 48 -72 48 -59 0 17 66
90 102 113 16 11 28 28 28 40 0 21 -1 20 -13 -3 -7 -14 -29 -34 -50 -45 -49
-26 -57 -15 -57 86 0 71 23 260 34 277 3 5 6 44 7 88 2 76 3 80 37 112 l35 33
-11 52 c-28 132 -23 180 23 197 21 8 25 16 25 49 0 35 4 43 32 57 47 24 78 25
78 3 0 -11 6 -19 13 -19 22 0 27 11 14 32 -10 16 -8 22 12 39 44 36 71 21 71
-42 0 -16 5 -29 11 -29 12 0 67 39 122 87 36 32 57 41 57 26 0 -5 -37 -37 -82
-72 -44 -36 -76 -67 -70 -69 7 -2 37 18 67 44 31 26 58 44 62 40 4 -3 1 -29
-6 -57 -10 -39 -11 -53 -2 -59 21 -12 23 -184 3 -285 -16 -85 -33 -113 -41
-69 -2 10 -13 28 -24 39 -17 16 -20 16 -14 2 3 -9 1 -19 -4 -23 -6 -3 -9 -15
-6 -25 3 -11 1 -32 -3 -47 -5 -15 -16 -93 -26 -175 -13 -118 -14 -153 -4 -176
9 -23 9 -42 0 -85 -7 -35 -9 -94 -5 -158 4 -57 2 -124 -3 -150 -9 -47 -9 -48
15 -48 23 0 25 3 21 35 -3 28 -1 35 14 35 10 0 20 -10 24 -25 5 -21 12 -25 45
-25 64 0 126 21 138 47 6 13 15 23 20 23 23 0 62 -47 66 -80 11 -87 21 -124
34 -128 10 -3 12 1 8 19 -19 69 -28 160 -17 174 8 10 8 36 0 102 -20 151 -22
183 -13 196 5 7 7 45 5 85 -3 59 -7 72 -20 72 -14 1 -13 4 6 20 22 18 22 21 8
49 -20 38 -20 78 -1 115 8 15 15 48 15 71 0 36 -4 45 -21 50 -18 6 -20 13 -16
43 11 77 17 103 27 122 6 12 7 28 1 43 -7 19 -4 33 15 65 14 23 32 42 41 42
12 0 14 7 9 35 -8 43 8 72 52 91 25 10 39 11 54 3 15 -8 24 -7 36 4 12 11 22
13 34 6 12 -7 25 -6 38 1 24 13 46 4 31 -13 -10 -13 23 -59 52 -70 9 -3 17
-13 17 -22 0 -12 -4 -13 -19 -6 -10 6 -21 7 -25 4 -3 -3 -6 -45 -6 -92 -1 -74
-3 -83 -14 -68 -21 27 -25 20 -14 -25 6 -29 6 -55 -2 -80 -7 -26 -8 -92 0
-229 9 -186 9 -194 -10 -211 -25 -23 -25 -38 -2 -45 17 -4 15 -15 -24 -151
-24 -81 -43 -150 -44 -154 -1 -20 17 -4 38 32 12 22 27 40 33 40 11 0 6 -39
-21 -147 -11 -44 -14 -73 -8 -73 6 0 8 -11 6 -25 -7 -33 -2 -32 17 4 11 23 12
30 2 34 -9 3 -9 11 2 38 13 33 25 95 37 193 4 36 9 45 17 37 6 -6 12 -23 13
-39 3 -53 5 -58 14 -37 8 18 9 17 9 -8 1 -15 7 -30 15 -33 8 -3 16 -27 20 -55
7 -54 14 -60 34 -28 12 19 21 20 140 17 l127 -3 6 45 c3 25 7 39 9 33 1 -7 4
-17 5 -23 1 -5 3 -16 4 -22 1 -8 6 -6 12 5 8 13 7 27 -1 48 -11 25 -10 32 4
48 19 21 20 29 4 28 -49 -1 -48 -3 -43 104 3 80 1 106 -11 125 -9 12 -13 28
-9 34 13 20 47 156 47 183 0 16 -6 35 -13 43 -6 7 -9 23 -6 34 3 11 2 20 -3
20 -4 0 -12 84 -18 188 -5 103 -13 199 -17 213 -5 21 -3 27 13 31 15 4 21 18
27 56 4 28 12 55 19 61 6 5 61 13 121 17 86 5 123 3 170 -9 108 -29 726 -60
823 -42 l37 7 -33 27 c-33 26 -33 27 -14 44 23 21 36 21 52 2 6 -8 37 -24 67
-35 50 -19 57 -19 73 -5 9 8 21 15 27 15 6 0 31 18 56 41 50 44 84 49 80 11
-2 -13 5 -26 17 -32 16 -8 23 -4 46 25 14 19 35 35 45 35 21 0 25 -20 8 -37
-8 -8 4 -33 44 -91 30 -44 58 -89 61 -100 7 -20 55 -32 129 -32 15 0 41 -6 57
-15 35 -18 40 -18 40 -4 0 6 19 41 43 77 24 37 46 75 50 85 3 9 13 17 22 17 9
0 34 10 57 21 33 17 46 19 60 10 14 -9 18 -8 18 4 0 23 42 35 119 35 76 0 85
-4 70 -32 -14 -26 -7 -31 24 -19 25 10 26 8 56 -69 17 -44 33 -103 37 -131 6
-46 5 -51 -15 -56 -18 -5 -21 -12 -21 -65 0 -37 -4 -57 -10 -53 -6 3 -10 51
-10 109 0 116 -3 122 -67 128 -42 3 -47 0 -44 -32 2 -13 1 -13 -8 0 -5 8 -14
11 -18 6 -12 -12 -9 -174 5 -245 7 -35 12 -105 11 -155 0 -50 3 -113 6 -141 4
-27 9 -90 11 -140 1 -49 5 -138 8 -197 4 -92 2 -109 -11 -117 -14 -7 -13 -10
5 -15 27 -9 30 -21 34 -151 l3 -110 -31 -3 c-24 -2 -33 2 -42 22 -9 20 -9 24
2 20 20 -8 24 14 15 76 -4 30 -8 76 -8 103 -1 41 -4 47 -22 47 -16 0 -20 -5
-16 -20 3 -11 1 -18 -4 -15 -4 3 -21 -1 -37 -9 -16 -8 -32 -12 -36 -9 -3 4 -6
-3 -6 -15 0 -11 20 -51 45 -88 55 -82 57 -95 11 -92 -19 1 -32 6 -30 10 3 5
-29 65 -70 134 -42 69 -76 130 -76 134 0 4 11 15 25 24 32 21 23 45 -32 85
-27 19 -51 49 -67 83 -29 60 -23 70 35 66 32 -3 35 -1 26 14 -8 12 -16 14 -28
8 -10 -6 -29 -6 -48 0 -25 7 -33 6 -38 -6 -13 -36 -59 3 -118 101 -41 69 -59
124 -56 180 1 29 -6 53 -28 87 -17 26 -39 86 -52 137 -12 50 -26 91 -30 91
-17 0 -20 -79 -5 -124 20 -59 20 -97 0 -140 -15 -31 -15 -37 0 -82 15 -44 15
-49 0 -57 -14 -8 -13 -11 6 -21 25 -12 47 -42 39 -51 -4 -3 -18 -1 -33 4 l-26
11 0 -60 c0 -42 -4 -60 -13 -60 -7 0 -14 12 -15 26 -5 61 -24 159 -33 173 -9
14 -10 14 -5 0 7 -23 16 -138 20 -239 3 -79 -7 -140 -20 -127 -3 3 -9 65 -12
139 -6 116 -9 130 -20 110 -10 -17 -11 -35 -2 -80 6 -31 7 -83 4 -114 -5 -48
-10 -58 -25 -58 -29 0 -59 -31 -58 -60 l1 -25 10 28 c15 40 31 22 23 -27 -4
-22 -4 -38 1 -33 4 4 10 26 13 50 6 45 29 59 58 36 13 -11 14 -28 9 -94 -7
-90 5 -128 42 -133 26 -4 28 14 11 85 -9 35 -9 47 0 53 12 7 11 70 -1 210 -3
34 -2 35 35 38 34 3 51 23 30 35 -5 2 -2 2 5 0 8 -1 20 -3 28 -3 10 0 11 -6 5
-23 -13 -35 -4 -745 10 -779 6 -15 9 -45 5 -65 -3 -21 -7 -50 -9 -66 -2 -15
-10 -35 -19 -43 -17 -17 -42 -10 -35 9 9 28 -205 66 -242 43 -6 -4 -11 -25
-11 -46 0 -76 -39 -62 -48 17 -4 44 -15 62 -34 63 -5 0 -8 -11 -8 -25 0 -14 5
-25 10 -25 19 0 10 -17 -14 -28 -20 -9 -29 -7 -49 9 -37 28 -53 24 -71 -21 -9
-22 -17 -40 -19 -40 -1 0 -4 12 -5 26 -3 34 -19 54 -43 54 -11 0 -19 5 -19 10
0 7 -6 7 -20 0 -17 -9 -20 -8 -20 10 0 14 -9 24 -29 31 -23 8 -27 15 -23 34 2
15 0 25 -7 25 -6 0 -11 -9 -11 -19 0 -10 -7 -22 -16 -25 -26 -10 -54 -7 -54 7
0 9 -2 9 -8 0 -6 -9 -54 -13 -175 -14 -92 0 -169 -5 -172 -10 -4 -5 -14 -5
-26 2 -23 12 -176 3 -199 -11 -11 -7 -11 -11 -1 -24 12 -14 16 -14 38 4 23 18
53 18 53 -1 0 -5 21 -9 46 -9 46 0 222 -40 269 -62 14 -6 25 -16 25 -21 0 -13
-60 -3 -155 28 -44 14 -103 25 -132 25 -45 0 -53 -3 -53 -19 0 -10 7 -25 16
-32 13 -11 17 -10 25 4 13 22 45 22 53 0 7 -18 -12 -35 -32 -28 -8 3 -38 5
-68 5 -55 0 -55 0 -40 22 24 34 20 45 -14 40 -16 -2 -30 -8 -30 -13 0 -5 -5
-9 -11 -9 -7 0 -8 11 -4 30 6 29 6 30 -32 30 l-38 0 23 18 c13 10 21 24 18 32
-17 57 -16 56 -37 21 l-19 -32 -128 6 c-127 7 -127 7 -179 -21 -38 -21 -63
-46 -95 -93 -49 -73 -68 -86 -68 -47 0 15 -7 29 -15 32 -8 4 -15 10 -15 14 0
5 40 35 89 67 50 32 90 61 90 66 1 12 -28 8 -53 -9 -26 -16 -43 -5 -32 21 4
13 -15 15 -122 15 -70 0 -144 3 -164 6 -30 5 -38 3 -38 -9 0 -9 -12 -25 -27
-37 -26 -21 -37 -22 -158 -19 l-130 4 -13 -27 c-16 -34 -27 -35 -43 -7 -10 20
-17 21 -94 16 -45 -3 -98 -14 -118 -23 -31 -15 -42 -16 -78 -5 -36 11 -42 10
-55 -6 -13 -17 -14 -16 -12 12 l3 30 83 3 c45 2 81 6 78 10 -2 4 35 8 82 10
91 4 120 16 108 47 -5 15 -21 16 -159 10 -83 -4 -168 -11 -187 -16 -19 -5 -54
-9 -77 -9 -42 0 -43 0 -43 -35 l0 -35 -52 0 c-29 0 -69 4 -88 9 -57 15 -280
24 -280 12 0 -7 29 -11 75 -11 43 0 75 -4 75 -10 0 -5 -13 -10 -29 -10 -49 0
-62 -9 -48 -31 6 -10 17 -19 22 -19 23 0 65 26 71 43 5 15 16 16 107 11 99 -7
125 -12 100 -21 -15 -5 -18 -33 -4 -33 5 0 11 6 14 13 2 6 8 8 13 4 13 -12
-10 -42 -35 -45 -24 -4 -24 -3 -12 -34 10 -28 -1 -46 -40 -67 -22 -11 -33 -11
-61 -1 -30 11 -39 11 -59 -3 -13 -10 -32 -17 -42 -17 -16 0 -17 -2 -7 -15 12
-14 10 -14 -16 -1 -16 8 -49 20 -72 26 -31 8 -48 20 -60 41 -19 33 -32 37 -32
11 0 -25 -20 -42 -48 -42 -22 0 -24 3 -18 38 9 54 9 62 -6 114 -19 65 -28 70
-28 15 0 -26 -4 -47 -10 -47 -5 0 -10 4 -10 10 0 5 -14 17 -31 26 l-31 16 36
33 c42 38 50 83 16 92 -25 7 -25 15 -1 37 17 15 18 20 6 43 -9 18 -11 33 -4
50 5 13 9 41 9 62 0 30 6 42 30 59 40 30 39 52 -2 53 l-33 2 35 7 c45 9 23 19
-51 24 -29 2 -88 13 -129 25 -41 11 -89 21 -106 21 -29 0 -32 -3 -44 -55 -14
-57 -31 -82 -50 -70 -5 3 -10 15 -10 26 0 20 -1 20 -29 -3 -16 -13 -39 -43
-51 -68 -12 -25 -34 -62 -47 -82 -40 -59 -82 -170 -72 -190 6 -11 5 -18 -4
-22 -8 -3 -7 -8 6 -16 24 -16 23 -44 -3 -37 -11 3 -18 1 -15 -3 3 -5 -4 -11
-15 -15 -11 -4 -18 -10 -16 -14 3 -4 -1 -19 -9 -34 -11 -22 -11 -25 1 -20 19
7 17 -7 -6 -37 -20 -25 -26 -50 -12 -50 15 1 52 39 52 54 0 8 5 18 10 21 6 4
8 11 4 16 -10 16 5 59 21 59 15 0 30 -34 20 -50 -3 -5 3 -10 14 -10 30 0 27
-41 -5 -90 -26 -38 -27 -39 -54 -25 -25 13 -29 13 -41 -1 -11 -13 -26 -15 -76
-11 -34 4 -78 13 -99 22 -37 15 -37 15 -19 -5 18 -20 18 -64 -1 -160 l-7 -33
36 6 c50 8 54 -6 14 -48 -33 -34 -37 -35 -106 -35 -61 0 -71 2 -71 18 1 46 28
181 44 214 10 21 15 46 11 57 -4 13 3 36 20 64 32 56 60 81 81 73 9 -3 26 2
39 13 19 14 35 17 75 13 46 -4 50 -3 50 16 0 12 8 26 18 31 12 8 4 9 -33 5
-31 -4 -66 -17 -93 -35 -23 -16 -52 -29 -64 -29 -29 0 -88 -47 -88 -70 0 -41
-11 -50 -60 -50 -31 0 -56 6 -69 18 -21 16 -21 19 -8 51 11 27 12 39 3 54 -9
16 -8 21 8 31 53 31 104 88 116 130 7 25 9 49 5 55 -3 6 3 23 14 37 11 14 17
32 14 40 -8 22 17 94 43 126 13 16 20 36 17 47 -11 42 47 191 74 191 18 0 16
13 -7 43 -20 26 -27 67 -11 67 5 0 15 -10 24 -22 17 -27 26 -22 37 24 13 52
78 230 97 263 9 17 25 36 35 43 10 7 18 19 18 26 0 23 67 150 90 171 30 27 54
85 40 99 -19 19 -10 45 26 80 35 34 35 35 15 48 -25 15 -27 31 -5 49 14 11 18
10 29 -5 13 -16 15 -14 33 26 11 23 25 61 32 83 14 46 39 78 55 71 11 -4 67
85 63 101 -6 25 40 99 65 102 4 1 19 -11 32 -26z m4343 -255 c6 -8 13 -108 16
-233 4 -121 9 -247 12 -280 7 -78 13 -485 7 -462 -2 9 -11 17 -19 17 -12 0
-12 -3 -2 -20 7 -11 16 -20 20 -20 13 0 9 -98 -3 -106 -8 -5 -6 -10 5 -16 13
-7 16 -25 16 -89 0 -71 -2 -80 -17 -77 -13 2 -19 14 -21 38 -1 19 -6 60 -12
90 -5 30 -11 87 -12 127 -1 40 -5 70 -10 67 -10 -6 -9 -16 -9 136 0 69 0 134
0 145 0 11 0 64 0 118 0 79 -2 97 -14 97 -19 0 -19 14 -1 33 10 9 11 18 5 24
-5 5 -12 72 -15 149 -4 89 -11 149 -20 168 -18 37 -18 45 1 20 13 -18 14 -16
15 22 0 55 32 83 58 52z m-2728 -48 c0 -42 -14 -54 -23 -20 -6 24 2 60 14 60
5 0 9 -18 9 -40z m2641 -93 c-10 -9 -11 -8 -5 6 3 10 9 15 12 12 3 -3 0 -11
-7 -18z m-4 -39 c-3 -8 -6 -5 -6 6 -1 11 2 17 5 13 3 -3 4 -12 1 -19z m-2710
-110 c-3 -8 -6 -5 -6 6 -1 11 2 17 5 13 3 -3 4 -12 1 -19z m2099 -68 c8 0 14
-7 14 -15 0 -9 -9 -15 -25 -15 -26 0 -29 7 -18 36 4 11 8 13 11 6 2 -7 10 -12
18 -12z m774 -111 c0 -12 -5 -19 -11 -17 -6 2 -10 7 -10 11 1 4 1 14 1 23 0 8
5 12 10 9 6 -3 10 -15 10 -26z m-4035 -19 c31 -45 28 -56 -24 -66 -31 -7 -34
-5 -29 14 4 12 0 26 -8 33 -17 14 -18 31 -2 47 20 20 34 14 63 -28z m1199 14
c9 -24 7 -184 -3 -184 -11 0 -21 61 -21 138 0 59 11 80 24 46z m2885 -42 c15
-29 24 -151 25 -349 0 -101 4 -183 8 -183 5 0 8 -7 8 -15 0 -10 -10 -15 -27
-15 -34 0 -60 15 -45 24 13 8 4 37 -16 52 -13 10 -13 15 0 42 11 21 12 34 5
41 -5 5 -11 45 -12 88 -1 43 -3 112 -5 153 -2 41 -2 99 -1 128 1 48 3 52 26
52 13 0 29 -8 34 -18z m-753 -36 c21 -22 54 -104 52 -130 -2 -20 -6 -22 -29
-16 -15 5 -29 6 -32 4 -2 -2 -4 2 -4 9 -1 6 -6 36 -12 66 -6 29 -11 60 -11 67
0 18 18 18 36 0z m86 -199 c15 -12 37 -44 49 -71 12 -28 29 -57 38 -65 9 -9
11 -12 4 -8 -9 7 -10 2 -3 -21 6 -23 5 -32 -6 -36 -12 -5 -10 -12 11 -33 14
-16 33 -43 42 -61 9 -18 26 -35 39 -38 19 -5 24 -13 24 -38 0 -21 3 -27 9 -18
7 11 13 9 30 -9 11 -12 21 -26 21 -30 0 -4 9 -10 20 -14 12 -4 24 -22 32 -47
7 -23 14 -36 16 -29 9 27 30 5 65 -70 21 -44 56 -100 77 -123 24 -26 40 -53
40 -68 0 -26 17 -48 37 -48 10 0 10 5 1 26 -10 21 -9 27 3 35 8 5 19 9 25 9
13 0 60 -44 81 -77 20 -30 49 -32 33 -2 -8 15 -8 24 0 34 9 11 6 14 -17 17
-18 2 -29 10 -31 22 -2 10 -13 28 -23 39 -10 12 -19 30 -19 42 0 11 -9 39 -20
60 -11 22 -18 45 -15 52 2 7 -1 13 -7 13 -6 0 -9 2 -7 5 3 2 22 0 42 -6 l38
-10 -7 -52 c-4 -38 -3 -48 5 -37 15 22 14 100 -1 100 -9 0 -10 2 -2 8 13 8 23
71 23 155 1 54 2 57 26 57 14 0 29 -8 34 -19 9 -17 38 -217 39 -266 0 -41 39
-211 55 -244 10 -19 15 -43 11 -53 -3 -12 0 -18 9 -18 15 0 27 -20 27 -46 0
-8 -7 -14 -16 -14 -13 0 -14 -13 -8 -103 12 -169 13 -160 -23 -176 -18 -8 -33
-17 -33 -21 0 -3 15 -11 33 -18 34 -12 152 -120 142 -130 -3 -3 -13 2 -23 11
-10 10 -24 17 -30 17 -7 0 -12 6 -12 13 0 12 -69 59 -105 71 -19 6 -19 5 -2
-8 19 -15 24 -41 5 -29 -7 4 -39 10 -72 14 -45 6 -64 13 -80 32 -11 13 -29 27
-38 30 -19 7 -25 37 -7 37 6 0 19 -5 30 -10 22 -13 25 -2 5 25 -12 17 -17 18
-40 7 -15 -7 -45 -12 -68 -12 -36 0 -39 2 -27 16 8 10 21 13 36 9 13 -3 36 1
51 9 23 12 33 12 49 3 61 -35 65 -36 28 -3 -22 19 -50 35 -61 36 -32 0 -40 30
-9 30 20 0 25 5 25 25 l0 25 -20 -20 c-11 -11 -24 -20 -30 -20 -5 0 -10 -11
-10 -24 0 -22 -8 -27 -57 -42 -79 -24 -91 -34 -61 -50 13 -8 40 -13 60 -14 29
0 36 -3 32 -15 -4 -10 0 -15 12 -15 24 0 104 -39 104 -51 0 -20 -32 -21 -53
-1 -31 29 -100 52 -156 52 -25 -1 -84 -14 -131 -30 -47 -17 -102 -30 -122 -30
-38 0 -38 0 -38 40 0 29 -4 40 -15 40 -20 0 -19 6 5 30 17 17 20 32 19 87 -2
52 2 69 15 78 15 12 15 13 0 19 -13 5 -14 9 -4 21 6 7 18 11 26 8 9 -3 14 2
14 16 0 22 -14 28 -25 11 -3 -5 -13 -10 -22 -10 -11 0 -14 7 -11 25 4 19 1 25
-13 25 -20 0 -23 8 -13 34 8 20 28 21 44 1 19 -23 30 -18 30 14 0 65 -16 70
-77 25 -35 -27 -53 -30 -54 -11 -4 54 4 224 11 231 4 4 4 21 -2 37 -8 24 -16
29 -41 29 -32 1 -32 1 -11 18 19 16 21 26 16 94 -4 72 -3 76 17 80 21 3 21 4
-6 33 -16 16 -26 31 -24 33 2 1 1 15 -2 31 l-6 29 -42 -14 c-71 -25 -72 -22
-67 135 2 77 7 143 11 147 4 4 13 2 19 -4 19 -19 30 -14 18 7 -5 11 -10 24
-10 30 0 19 44 11 72 -12z m-2885 -164 c-3 -10 -5 -4 -5 12 0 17 2 24 5 18 2
-7 2 -21 0 -30z m2620 -45 c-3 -8 -6 -5 -6 6 -1 11 2 17 5 13 3 -3 4 -12 1
-19z m206 -255 c5 -143 -5 -233 -27 -233 -10 0 -15 45 -19 176 -4 97 -5 180
-1 185 3 5 13 9 23 9 16 0 19 -14 24 -137z m493 -58 c-7 -28 20 -89 53 -119
26 -24 27 -36 2 -36 -20 0 -60 54 -85 115 -22 53 -20 65 10 65 23 0 25 -3 20
-25z m-4466 11 c0 -3 -4 -8 -10 -11 -5 -3 -10 -1 -10 4 0 6 5 11 10 11 6 0 10
-2 10 -4z m6 -94 c-9 -2 -24 -2 -33 0 -15 3 -15 5 2 22 18 18 19 18 32 0 12
-16 12 -19 -1 -22z m24 -80 c0 -5 -9 -17 -20 -27 -26 -23 -52 -6 -30 20 13 16
50 21 50 7z m-196 -21 c6 -10 -50 -91 -62 -91 -21 0 -19 16 9 56 30 44 43 52
53 35z m126 -4 c0 -22 -20 -34 -46 -29 -30 6 -31 20 -1 32 32 13 47 12 47 -3z
m4651 -6 c-15 -27 -48 -33 -54 -10 -3 11 -2 17 2 15 4 -3 13 -1 21 5 26 16 42
11 31 -10z m-571 -60 c0 -28 -4 -53 -10 -56 -5 -3 -10 0 -11 7 0 7 -3 26 -5
42 -6 33 1 56 16 56 5 0 10 -22 10 -49z m-4170 17 c0 -13 -9 -34 -20 -48 -22
-28 -24 -21 -9 33 11 41 29 50 29 15z m1403 -15 c-7 -2 -21 -2 -30 0 -10 3 -4
5 12 5 17 0 24 -2 18 -5z m2685 -5 c7 -7 12 -20 12 -31 0 -30 -34 -16 -38 16
-4 29 6 35 26 15z m-2873 -7 c7 -12 -15 -18 -95 -26 -36 -4 -73 -9 -83 -12
-14 -4 -18 0 -15 14 3 15 16 19 83 24 44 3 85 6 92 7 6 1 14 -2 18 -7z m115
-1 c0 -13 -20 -13 -40 0 -12 8 -9 10 13 10 15 0 27 -4 27 -10z m-1380 -34 c0
-37 17 -40 36 -7 14 23 21 28 31 19 18 -14 16 -38 -4 -60 -22 -25 -50 -23 -64
4 -8 14 -14 18 -17 10 -7 -21 -22 -13 -22 11 0 23 17 47 32 47 4 0 8 -11 8
-24z m2198 12 c-2 -6 -23 -17 -46 -24 -58 -17 -74 -31 -62 -54 16 -30 13 -53
-6 -42 -12 7 -31 0 -68 -24 -83 -53 -146 -106 -139 -117 3 -6 1 -7 -5 -3 -7 4
-12 2 -12 -3 0 -6 -7 -11 -15 -11 -8 0 -15 -4 -15 -10 0 -5 -7 -10 -15 -10 -8
0 -15 7 -15 15 0 15 6 21 87 88 68 56 52 65 -179 96 -64 8 -80 17 -58 32 16
10 84 4 195 -16 69 -13 69 -13 45 5 l-25 19 43 7 c39 6 69 24 41 24 -7 0 -10
3 -6 6 7 8 167 31 220 33 25 1 37 -3 35 -11z m-1919 -31 c8 -10 7 -14 -2 -14
-8 0 -14 6 -14 14 0 7 1 13 2 13 2 0 8 -6 14 -13z m861 2 c0 -20 -21 -49 -35
-49 -18 0 -18 2 -3 35 11 25 38 35 38 14z m710 -9 c0 -5 -13 -10 -30 -10 -16
0 -30 5 -30 10 0 6 14 10 30 10 17 0 30 -4 30 -10z m-413 -11 c-9 -6 -15 -14
-12 -20 4 -5 1 -9 -4 -9 -6 0 -11 4 -11 8 0 12 22 32 35 32 5 0 2 -5 -8 -11z
m54 -16 c13 -17 13 -17 -6 -3 -11 8 -22 16 -24 17 -2 2 0 3 6 3 6 0 17 -8 24
-17z m2355 2 c34 -17 54 -19 54 -5 0 6 7 10 15 10 8 0 15 -6 15 -13 0 -8 14
-11 45 -9 28 3 45 0 45 -7 0 -7 -23 -11 -60 -11 -33 0 -60 -4 -60 -10 0 -5 9
-10 19 -10 32 0 51 -11 51 -29 0 -28 -10 -31 -47 -16 -20 8 -48 15 -63 15 -39
0 -64 31 -55 69 8 36 5 35 41 16z m-2481 -15 c0 -20 -42 -25 -62 -8 -14 11
-13 13 8 19 34 10 54 6 54 -11z m2120 0 c0 -14 -58 -34 -78 -27 -7 2 4 14 23
25 37 23 55 24 55 2z m-378 4 c-3 -3 -12 -4 -19 -1 -8 3 -5 6 6 6 11 1 17 -2
13 -5z m-1504 -21 c11 -10 -24 -43 -45 -43 -21 0 -25 35 -5 43 18 8 43 8 50 0z
m1927 -13 c0 -11 -7 -20 -15 -20 -15 0 -21 21 -8 33 12 13 23 7 23 -13z m-250
-15 c0 -28 -15 -34 -24 -9 -10 25 -7 34 9 34 9 0 15 -9 15 -25z m-2030 -13
c68 -25 75 -30 72 -52 -4 -33 -19 -47 -34 -32 -7 7 -19 12 -28 12 -8 0 -26 8
-39 17 -23 16 -23 17 -5 24 17 6 16 8 -9 18 -16 6 -43 11 -60 12 -18 0 -26 3
-19 6 6 2 10 9 6 14 -10 16 40 8 116 -19z m221 19 c-19 -12 -121 -13 -121 -1
0 6 30 10 68 10 42 0 62 -4 53 -9z m-1412 -56 c-3 -63 -11 -80 -33 -72 -20 8
-21 47 -2 92 22 53 37 44 35 -20z m2966 5 c4 -6 -7 -10 -24 -10 -17 0 -31 5
-31 10 0 6 11 10 24 10 14 0 28 -4 31 -10z m745 -10 c0 -11 -48 -25 -56 -17
-4 3 -3 10 1 16 8 14 55 14 55 1z m-2062 -27 c3 -20 -1 -23 -27 -23 -23 0 -31
5 -31 18 0 25 10 33 35 30 12 -2 21 -12 23 -25z m1522 -30 c-17 -52 -30 -64
-30 -27 0 29 27 80 37 70 3 -2 0 -22 -7 -43z m730 28 c0 -2 -12 -19 -26 -38
-19 -25 -24 -41 -20 -59 5 -20 2 -26 -21 -35 -16 -6 -41 -23 -58 -39 -58 -55
-95 -43 -95 33 0 42 4 55 20 65 15 9 26 10 40 2 23 -12 25 -7 9 21 -19 36 9
54 85 54 36 0 66 -2 66 -4z m-2979 -24 c-10 -9 -11 -8 -5 6 3 10 9 15 12 12 3
-3 0 -11 -7 -18z m1156 -44 c-2 -16 -4 -5 -4 22 0 28 2 40 4 28 2 -13 2 -35 0
-50z m-2612 40 c29 -14 35 -22 33 -43 -3 -21 -9 -25 -39 -28 -45 -4 -61 14
-53 57 7 36 11 37 59 14z m1622 -38 c17 -20 30 -44 28 -53 -2 -9 -4 -50 -4
-89 -1 -83 -1 -83 -101 -62 -47 10 -50 12 -50 42 0 18 12 64 26 102 14 39 28
80 31 92 7 28 27 19 70 -32z m1491 38 c24 -3 46 -11 49 -18 5 -14 -35 -82 -60
-103 -12 -10 -21 -11 -37 -2 -19 10 -23 7 -41 -34 -11 -25 -24 -48 -29 -51
-17 -10 -11 23 10 65 11 22 20 47 20 56 0 9 -9 18 -20 21 -46 12 -7 90 40 78
14 -3 45 -8 68 -12z m-2553 -23 c10 -11 16 -20 13 -20 -3 0 -13 9 -23 20 -10
11 -16 20 -13 20 3 0 13 -9 23 -20z m853 -7 c-10 -2 -28 -2 -40 0 -13 2 -5 4
17 4 22 1 32 -1 23 -4z m29 -25 c-3 -8 -6 -5 -6 6 -1 11 2 17 5 13 3 -3 4 -12
1 -19z m-78 -12 c49 -13 62 -30 34 -44 -13 -7 -33 -1 -80 24 -42 22 -57 34
-45 37 9 3 24 2 32 0 8 -3 35 -11 59 -17z m-704 4 c-3 -5 -14 -10 -23 -9 -14
0 -13 2 3 9 27 11 27 11 20 0z m654 -80 c74 -59 67 -88 -21 -92 -51 -2 -58 7
-58 73 0 72 9 74 79 19z m79 -25 c-3 -3 -9 2 -12 12 -6 14 -5 15 5 6 7 -7 10
-15 7 -18z m3754 -257 c-15 -15 -67 -6 -67 12 0 20 57 30 69 12 4 -8 4 -18 -2
-24z"/>
<path d="M3196 5654 c-23 -49 -34 -84 -30 -98 3 -13 -9 -71 -26 -130 -31 -106
-37 -160 -11 -98 8 18 19 32 25 32 6 0 17 14 23 30 6 17 7 30 2 30 -13 0 2
161 17 192 8 14 27 41 43 59 16 17 27 38 24 45 -11 30 -32 11 -67 -62z"/>
<path d="M2651 5668 c17 -34 19 -34 19 -5 0 18 -5 27 -15 27 -13 0 -14 -4 -4
-22z"/>
<path d="M4635 5676 c11 -8 23 -12 28 -9 13 8 -3 23 -26 23 -20 0 -20 0 -2
-14z"/>
<path d="M4543 5659 c-9 -9 -248 -26 -343 -25 -33 1 -45 -3 -48 -15 -2 -13 7
-14 65 -8 37 5 102 5 144 2 42 -3 106 -2 143 1 55 6 66 11 66 26 0 23 -13 33
-27 19z"/>
<path d="M2674 5609 c-3 -6 -1 -16 5 -22 8 -8 11 -5 11 11 0 24 -5 28 -16 11z"/>
<path d="M2807 5544 c-3 -6 7 -44 23 -85 28 -68 29 -71 23 -29 -8 55 -37 128
-46 114z"/>
<path d="M4360 5516 c0 -14 3 -16 13 -8 6 6 28 12 47 14 32 3 31 4 -12 8 -42
5 -48 3 -48 -14z"/>
<path d="M4561 5529 c-24 -5 -45 -10 -48 -12 -9 -9 11 -37 26 -37 25 0 33 11
20 27 -20 23 68 17 98 -7 21 -16 29 -18 41 -8 13 11 11 14 -14 19 -16 3 -28
10 -26 17 2 14 -31 14 -97 1z"/>
<path d="M4360 5462 c0 -39 11 -52 36 -46 19 5 24 2 24 -12 0 -15 2 -16 9 -5
8 12 12 12 25 2 9 -8 16 -22 16 -32 0 -23 21 -69 32 -69 4 0 8 5 8 11 0 6 12
9 28 7 39 -4 44 -56 7 -92 -22 -22 -23 -26 -8 -26 16 0 18 -11 21 -76 2 -47 9
-85 17 -98 24 -34 18 -44 -39 -62 -64 -20 -86 -14 -87 23 -1 15 -6 -1 -11 -37
-9 -63 -3 -158 10 -146 3 4 8 30 10 59 4 56 13 67 53 67 l27 0 4 -107 c4 -95
2 -111 -15 -135 -12 -15 -17 -35 -14 -47 5 -22 -7 -29 -18 -11 -3 6 -14 10
-23 9 -11 0 -12 -3 -4 -6 6 -2 12 -11 12 -19 0 -9 5 -12 11 -8 6 3 15 1 19 -6
5 -8 16 -1 35 25 37 47 73 65 133 65 48 0 49 1 65 40 8 22 13 49 10 59 -3 11
4 40 16 64 12 24 21 50 21 57 0 35 -34 96 -63 115 -31 20 -32 22 -32 96 0 66
-3 80 -26 110 -37 48 -68 79 -78 79 -5 0 -12 11 -15 24 -4 18 -29 36 -95 70
-50 26 -97 53 -105 62 -15 14 -16 14 -16 -4z m287 -288 c-3 -3 -12 -4 -19 -1
-8 3 -5 6 6 6 11 1 17 -2 13 -5z"/>
<path d="M2861 5364 c0 -11 3 -14 6 -6 3 7 2 16 -1 19 -3 4 -6 -2 -5 -13z"/>
<path d="M5012 5335 c-31 -29 -34 -36 -22 -45 22 -14 35 -6 32 18 -2 13 4 23
18 27 11 3 20 13 20 21 0 21 -6 18 -48 -21z"/>
<path d="M4306 5304 c-9 -25 -7 -64 4 -64 6 0 10 18 10 40 0 43 -4 50 -14 24z"/>
<path d="M4439 5298 c-7 -122 -6 -269 2 -273 5 -4 9 17 9 48 0 30 3 82 7 117
4 38 2 61 -3 57 -5 -3 -8 11 -6 34 2 21 1 39 -2 39 -3 0 -7 -10 -7 -22z"/>
<path d="M2750 5285 c0 -15 34 -55 47 -55 11 0 9 7 -7 30 -19 27 -40 40 -40
25z"/>
<path d="M2846 5283 c-12 -12 -6 -33 9 -33 8 0 15 6 15 14 0 17 -14 28 -24 19z"/>
<path d="M3090 5210 c-6 -11 -8 -20 -6 -20 3 0 10 9 16 20 6 11 8 20 6 20 -3
0 -10 -9 -16 -20z"/>
<path d="M3040 5116 c-5 -15 -10 -29 -10 -32 0 -3 -20 -34 -44 -69 -24 -36
-52 -86 -62 -112 -10 -27 -23 -51 -28 -55 -8 -5 -7 -11 0 -18 9 -9 17 -4 33
18 11 17 21 36 21 44 0 7 9 21 20 31 11 9 20 23 20 31 0 7 9 25 21 40 12 15
28 52 36 82 15 59 11 86 -7 40z"/>
<path d="M4740 5136 c0 -16 24 -55 31 -50 16 9 10 33 -11 44 -11 6 -20 9 -20
6z"/>
<path d="M2526 4980 c-9 -39 -19 -93 -21 -118 l-5 -47 15 33 c25 54 50 181 38
193 -8 8 -16 -10 -27 -61z"/>
<path d="M2481 4993 c-5 -11 -17 -60 -25 -109 -8 -49 -18 -100 -21 -114 -4
-14 -11 -43 -15 -65 -5 -22 -14 -56 -20 -75 -6 -19 -13 -42 -15 -50 -18 -78
-22 -101 -15 -105 5 -3 14 20 20 51 7 32 20 76 30 100 16 37 34 124 70 329 9
56 7 66 -9 38z"/>
<path d="M3078 4927 c-10 -23 -18 -47 -18 -53 0 -6 -8 -22 -19 -35 -26 -34
-37 -99 -16 -99 8 0 15 6 15 13 0 7 11 35 24 63 13 27 27 67 32 89 7 29 14 40
27 39 21 -2 22 12 1 20 -26 10 -28 8 -46 -37z"/>
<path d="M5240 4872 c-8 -4 -16 -20 -18 -37 -2 -18 0 -26 5 -20 9 10 35 66 30
64 -1 0 -9 -3 -17 -7z"/>
<path d="M2603 4863 c-7 -2 -9 -11 -7 -18 3 -8 -2 -44 -11 -81 -9 -36 -14 -68
-12 -70 3 -3 10 19 17 48 7 29 18 58 26 64 16 13 5 63 -13 57z"/>
<path d="M3270 4840 c0 -5 9 -10 21 -10 11 0 17 5 14 10 -3 6 -13 10 -21 10
-8 0 -14 -4 -14 -10z"/>
<path d="M3743 4770 c-29 -57 -52 -132 -53 -167 0 -7 11 -1 25 13 17 17 25 36
25 59 0 19 9 59 21 90 29 79 20 82 -18 5z"/>
<path d="M2841 4811 c-16 -12 -20 -21 -12 -25 18 -11 14 -20 -28 -62 -27 -26
-36 -41 -28 -46 8 -6 2 -18 -22 -39 -39 -36 -41 -55 -11 -124 18 -44 20 -46
15 -15 -17 97 -19 91 40 169 30 41 53 76 51 79 -3 2 5 12 17 22 17 14 19 22
12 38 -10 21 -11 21 -34 3z"/>
<path d="M4978 4795 c-9 -16 -37 -57 -62 -90 -25 -33 -46 -65 -46 -71 0 -6
-14 -30 -30 -52 -39 -54 -23 -55 19 -1 22 27 39 39 51 36 13 -3 16 1 12 19 -3
16 9 45 38 88 23 36 40 73 38 83 -3 15 -7 12 -20 -12z"/>
<path d="M4456 4801 c-3 -4 -18 -7 -33 -5 -16 2 -20 1 -10 -2 9 -3 17 -9 17
-14 0 -5 -7 -7 -15 -3 -13 5 -14 2 -4 -21 11 -24 13 -24 25 -8 11 15 16 15 35
4 20 -13 21 -12 16 10 -4 12 -7 29 -7 36 0 14 -16 16 -24 3z"/>
<path d="M5115 4710 c-29 -41 -28 -57 0 -46 11 4 14 12 10 26 -3 11 -2 20 3
20 6 0 13 7 16 16 12 32 -1 24 -29 -16z"/>
<path d="M3455 4707 c-8 -19 12 -77 26 -77 12 0 11 8 -5 55 -11 31 -16 36 -21
22z"/>
<path d="M4810 4713 c0 -7 -15 -30 -34 -50 -18 -21 -41 -53 -50 -71 -18 -35
-68 -63 -143 -82 -28 -7 -43 -16 -43 -26 0 -20 34 -13 107 22 41 20 66 43 117
108 45 59 61 88 55 97 -6 10 -9 11 -9 2z"/>
<path d="M3313 4663 c-17 -6 -16 -28 2 -43 13 -11 15 -8 15 19 0 17 -1 31 -2
30 -2 0 -9 -3 -15 -6z"/>
<path d="M2590 4592 c0 -22 5 -44 10 -47 7 -4 8 8 4 37 -9 57 -14 61 -14 10z"/>
<path d="M3653 4578 c4 -12 7 -29 7 -36 0 -18 17 -6 22 16 3 12 -2 24 -15 31
-18 12 -19 11 -14 -11z"/>
<path d="M2760 4451 c0 -6 4 -13 10 -16 6 -3 7 1 4 9 -7 18 -14 21 -14 7z"/>
<path d="M4300 4404 c0 -13 6 -15 29 -11 16 3 33 1 41 -6 9 -9 11 -8 8 8 -4
27 -78 36 -78 9z"/>
<path d="M2310 4400 c-8 -5 -11 -12 -7 -16 3 -4 13 -1 22 6 13 10 15 9 15 -9
0 -11 4 -21 10 -21 9 0 30 31 30 44 0 10 -54 6 -70 -4z"/>
<path d="M2670 4370 c0 -11 2 -20 4 -20 2 0 6 9 9 20 3 11 1 20 -4 20 -5 0 -9
-9 -9 -20z"/>
<path d="M2214 4350 c-6 -14 -14 -50 -18 -80 l-6 -55 21 38 c13 26 19 52 17
80 -3 40 -4 41 -14 17z"/>
<path d="M2826 4305 c4 -8 8 -15 10 -15 2 0 4 7 4 15 0 8 -4 15 -10 15 -5 0
-7 -7 -4 -15z"/>
<path d="M2136 4185 c-5 -27 -15 -58 -24 -67 -14 -16 -14 -18 1 -18 25 0 38
35 35 88 l-3 47 -9 -50z"/>
<path d="M1960 4093 c0 -4 8 -17 16 -28 15 -20 16 -20 12 4 -3 22 -28 44 -28
24z"/>
<path d="M3477 4045 c-16 -12 -16 -13 9 -19 34 -9 54 8 27 22 -13 7 -23 6 -36
-3z"/>
<path d="M3575 4020 c-8 -13 5 -13 25 0 13 8 13 10 -2 10 -9 0 -20 -4 -23 -10z"/>
<path d="M2097 3945 c-13 -10 -15 -14 -5 -18 9 -3 8 -9 -7 -21 -20 -17 -20
-17 5 -10 32 8 32 8 28 37 -3 23 -5 24 -21 12z"/>
<path d="M4897 3076 c-3 -8 1 -17 10 -20 20 -8 27 -1 20 19 -8 19 -23 20 -30
1z"/>
<path d="M4675 3038 c8 -21 -14 -241 -25 -248 -4 -3 -11 -20 -15 -37 -5 -26
-3 -33 9 -33 11 0 16 9 16 28 0 15 7 55 16 87 18 65 19 194 3 210 -7 7 -8 4
-4 -7z"/>
<path d="M4070 3015 c-7 -9 -29 -15 -52 -15 -24 0 -37 -4 -33 -10 3 -5 28 -10
56 -10 46 0 49 2 49 25 0 29 -3 31 -20 10z"/>
<path d="M3868 3003 c12 -2 32 -2 45 0 12 2 2 4 -23 4 -25 0 -35 -2 -22 -4z"/>
<path d="M4947 2981 c3 -12 10 -21 15 -21 13 0 6 32 -9 37 -7 3 -9 -3 -6 -16z"/>
<path d="M4250 2979 c248 -13 303 -13 260 1 -14 4 -106 8 -205 7 l-180 -1 125
-7z"/>
<path d="M5598 2876 c-6 -94 2 -136 26 -136 11 0 12 8 5 38 -5 20 -9 60 -10
87 -2 98 -15 104 -21 11z"/>
<path d="M2887 2929 c-14 -8 -15 -14 -6 -30 6 -11 8 -27 5 -35 -3 -8 1 -14 9
-14 15 0 40 64 30 80 -8 12 -15 12 -38 -1z"/>
<path d="M3815 2931 c-4 -3 -30 -6 -57 -6 -30 0 -53 -5 -55 -12 -5 -13 188
-24 198 -10 9 12 220 -4 216 -17 -3 -7 -41 -10 -113 -9 -76 2 -104 0 -92 -7
24 -15 399 -20 391 -6 -4 6 0 5 9 -2 20 -16 140 -12 145 4 4 13 -201 30 -229
19 -10 -4 -18 -3 -18 3 0 6 8 16 18 22 15 10 15 11 -4 7 -12 -2 -46 0 -75 5
-67 11 -325 18 -334 9z m352 -37 c-3 -3 -12 -4 -19 -1 -8 3 -5 6 6 6 11 1 17
-2 13 -5z"/>
<path d="M4326 2932 c-3 -6 -2 -13 4 -17 15 -9 160 -3 166 6 3 5 -1 9 -8 9 -7
1 -45 3 -84 6 -45 4 -74 2 -78 -4z"/>
<path d="M2250 2894 c0 -22 2 -25 15 -14 12 10 13 16 4 26 -16 20 -19 18 -19
-12z"/>
<path d="M2163 2775 c0 -55 2 -91 4 -80 3 11 10 26 16 33 8 10 8 15 -1 21 -6
3 -13 33 -15 66 -2 37 -4 21 -4 -40z"/>
<path d="M4430 2825 l-35 -13 38 -1 c23 -1 36 -5 32 -11 -3 -5 -8 -19 -10 -30
-3 -16 2 -20 26 -20 19 0 28 4 24 11 -4 6 -14 8 -24 4 -13 -5 -14 -4 -3 6 6 7
12 26 12 41 0 31 -8 33 -60 13z"/>
<path d="M4822 2800 c0 -19 2 -27 5 -17 2 9 2 25 0 35 -3 9 -5 1 -5 -18z"/>
<path d="M2295 2796 c-22 -23 -26 -23 -35 -8 -6 12 -9 -23 -8 -113 l1 -130 10
87 c9 83 11 87 36 90 22 3 25 8 28 51 2 26 0 47 -2 47 -3 0 -17 -11 -30 -24z"/>
<path d="M5202 2811 c8 -22 144 -230 150 -231 18 -1 -46 136 -76 164 -18 17
-39 41 -45 54 -11 20 -37 33 -29 13z"/>
<path d="M2886 2593 c4 -115 6 -235 5 -268 -2 -53 -1 -58 13 -45 12 13 13 39
7 173 -5 86 -6 188 -3 226 5 75 -2 121 -19 121 -7 0 -8 -66 -3 -207z"/>
<path d="M4389 2786 c-4 -4 -121 -12 -319 -21 -58 -3 -117 -7 -132 -10 -15 -2
-28 1 -30 7 -3 7 -55 12 -148 15 -195 5 -258 -7 -173 -34 23 -7 45 -8 60 -2
38 14 90 11 108 -7 13 -13 18 -14 31 -3 11 9 63 12 197 10 101 -1 204 3 232 9
28 6 82 10 121 10 56 -1 73 2 77 15 6 13 -12 22 -24 11z"/>
<path d="M4864 2759 c5 -28 4 -31 -15 -26 -21 6 -21 4 -15 -55 3 -34 6 -123 6
-199 0 -86 4 -139 10 -139 6 0 10 10 10 23 0 36 14 49 43 41 23 -5 27 -3 27
14 0 12 -5 33 -10 48 -9 21 -7 29 7 40 11 8 13 13 6 14 -8 0 -13 14 -13 35 0
34 -13 47 -23 23 -3 -7 -3 3 0 22 3 19 10 44 16 54 7 14 5 21 -7 28 -10 5 -16
22 -16 43 0 40 -8 65 -22 65 -6 0 -8 -13 -4 -31z"/>
<path d="M4673 2717 c-15 -30 -23 -57 -18 -57 6 0 36 72 32 77 -2 1 -8 -7 -14
-20z"/>
<path d="M3622 2695 c0 -16 2 -22 5 -12 2 9 2 23 0 30 -3 6 -5 -1 -5 -18z"/>
<path d="M5566 2641 l-27 -28 27 -7 c22 -6 32 -3 46 16 40 52 1 68 -46 19z"/>
<path d="M3761 2558 c-1 -92 0 -100 12 -78 8 14 10 29 5 35 -11 12 -10 62 1
70 6 3 14 -2 19 -11 9 -16 11 -15 23 4 27 44 58 15 60 -55 1 -55 13 -87 31
-91 11 -2 18 5 20 20 2 19 10 23 45 26 36 3 42 0 45 -19 3 -25 28 -39 28 -16
0 8 -9 26 -20 40 -27 34 -25 41 4 22 13 -9 26 -25 29 -35 4 -15 14 -20 40 -20
19 0 40 -7 47 -15 14 -16 50 -21 50 -6 0 5 -25 23 -55 40 -68 39 -75 68 -17
74 32 3 34 5 15 12 -27 9 -30 23 -6 32 21 8 68 -44 103 -114 18 -35 25 -43 28
-29 2 10 -5 31 -17 47 -12 15 -21 30 -21 33 0 3 -11 17 -25 32 -29 31 -32 54
-7 55 29 2 -40 17 -85 18 -45 1 -59 -11 -55 -45 3 -21 -21 -54 -39 -54 -6 0
-21 11 -33 24 -13 12 -31 26 -40 29 -9 4 -16 13 -16 22 0 12 -13 15 -58 15
-46 0 -63 4 -77 20 -10 11 -21 20 -25 20 -4 0 -8 -46 -9 -102z m149 -7 c0 -6
-4 -13 -10 -16 -5 -3 -10 1 -10 9 0 9 5 16 10 16 6 0 10 -4 10 -9z"/>
<path d="M2154 2627 c0 -12 -4 -68 -9 -124 -6 -80 -5 -103 5 -103 7 0 10 6 7
13 -2 7 0 59 5 116 5 57 6 107 1 112 -4 4 -8 -2 -9 -14z"/>
<path d="M3690 2625 c-7 -8 -23 -15 -37 -15 -14 0 -21 -4 -18 -10 11 -18 41
-11 65 15 13 14 19 25 13 25 -6 0 -16 -7 -23 -15z"/>
<path d="M4725 2620 c-39 -15 -58 -46 -48 -77 13 -37 26 -35 34 5 4 18 15 42
24 52 21 24 18 31 -10 20z"/>
<path d="M1348 2593 c-8 -15 -13 -35 -11 -43 2 -9 -8 -47 -22 -85 -20 -53 -22
-65 -10 -55 9 8 25 31 36 51 10 21 28 43 39 49 18 9 18 13 5 56 -18 59 -21 62
-37 27z"/>
<path d="M3976 2605 c4 -10 16 -15 33 -13 37 4 32 22 -6 26 -27 3 -32 0 -27
-13z"/>
<path d="M4235 2610 c-11 -5 -14 -9 -6 -9 7 -1 11 -7 7 -16 -4 -11 1 -15 19
-15 14 0 34 -9 45 -20 11 -11 27 -20 35 -20 8 0 15 -6 15 -14 0 -8 6 -14 13
-13 58 2 77 -20 37 -45 -11 -7 -20 -22 -20 -33 1 -20 1 -20 15 -1 13 17 15 17
21 3 10 -27 24 -9 17 23 -3 18 -1 30 5 30 6 0 13 -24 15 -52 9 -87 18 -132 29
-155 9 -18 8 -27 -4 -40 -20 -22 -24 -48 -15 -88 4 -17 1 -52 -6 -80 l-14 -50
-54 3 c-30 2 -101 12 -158 23 -58 10 -128 19 -155 19 -79 1 -150 23 -154 47
-3 20 1 20 170 18 95 -1 186 -5 201 -10 20 -5 38 -2 63 11 37 20 39 29 19 89
-12 36 -15 37 -19 6 -2 -16 -10 -19 -61 -22 -27 -1 -61 -10 -75 -18 -19 -13
-69 -17 -253 -21 -226 -5 -229 -5 -208 -24 18 -16 23 -17 38 -5 10 7 15 9 11
5 -4 -5 -3 -15 3 -23 9 -9 8 -21 -2 -44 -12 -30 -13 -31 -27 -13 -14 18 -14
18 -9 -3 4 -19 1 -23 -18 -23 -27 0 -41 -15 -25 -25 6 -4 18 -1 26 6 13 10 17
10 25 -2 7 -11 9 -11 9 4 0 14 9 17 45 17 l45 0 0 -47 c0 -81 6 -90 58 -96 30
-3 52 -12 63 -26 15 -18 20 -19 48 -8 17 6 31 15 31 19 0 4 7 8 15 8 18 0 19
-12 4 -27 -16 -16 6 -26 28 -14 18 9 186 0 248 -14 17 -3 48 -10 70 -15 22 -5
70 -11 107 -13 66 -4 78 2 78 34 0 12 -47 12 -55 -1 -10 -16 -55 -11 -62 6 -9
24 8 45 46 58 50 16 75 55 67 101 -6 29 -11 35 -25 30 -22 -7 -31 17 -31 81 0
38 2 42 31 48 17 3 42 6 54 6 13 0 26 7 29 16 10 27 -3 30 -37 10 -31 -18 -32
-18 -47 5 -20 31 -44 55 -61 61 -8 3 -10 11 -6 22 6 14 14 17 37 12 28 -5 30
-4 24 19 -11 45 3 65 47 65 28 0 39 -4 39 -15 0 -8 -6 -15 -14 -15 -18 0 -10
-36 14 -67 16 -21 17 -20 13 30 -7 89 -13 118 -25 111 -7 -4 -8 -3 -4 5 4 6
11 9 16 6 8 -5 20 28 20 59 0 14 -3 16 -13 8 -8 -7 -19 -6 -37 3 -14 8 -37 14
-52 15 -28 0 -40 24 -16 32 19 7 -1 28 -27 28 -13 0 -30 8 -37 18 -10 13 -29
17 -94 18 -45 1 -102 3 -125 7 -24 3 -53 1 -64 -3z m251 -95 c2 -26 -3 -30
-24 -17 -15 10 -6 42 12 42 6 0 12 -11 12 -25z"/>
<path d="M5570 2530 c5 -69 -6 -179 -20 -194 -12 -12 27 -86 44 -86 8 0 17 -8
22 -17 6 -15 8 -13 14 12 12 50 11 164 -2 185 -10 15 -9 22 6 39 21 23 14 41
-16 41 -18 0 -20 4 -14 43 6 39 5 42 -16 42 -22 0 -23 -3 -18 -65z"/>
<path d="M4250 2542 c0 -6 9 -12 20 -15 11 -3 20 -3 20 -1 0 2 -9 8 -20 14
-11 6 -20 7 -20 2z"/>
<path d="M1529 2533 c-15 -2 -39 -17 -55 -34 l-28 -29 26 0 c15 0 40 11 56 25
17 14 40 25 53 26 23 0 23 1 4 9 -11 5 -22 8 -25 8 -3 -1 -17 -3 -31 -5z"/>
<path d="M4300 2490 c-12 -8 -9 -10 13 -10 16 0 26 4 22 10 -8 12 -16 12 -35
0z"/>
<path d="M1339 2367 c-30 -56 -64 -119 -75 -140 -14 -28 -20 -33 -22 -20 -2
10 -5 24 -8 32 -8 26 -42 -18 -74 -98 -17 -42 -39 -83 -49 -91 -9 -8 -28 -34
-41 -57 -13 -24 -27 -43 -30 -43 -4 0 -15 9 -25 20 -10 11 -26 20 -37 20 -15
0 -16 -3 -6 -19 7 -11 20 -22 30 -24 25 -7 23 -30 -7 -86 -38 -71 -107 -239
-87 -213 12 15 24 21 35 16 11 -4 17 -1 17 7 0 33 23 91 45 118 14 16 25 35
25 42 0 20 45 128 59 142 8 8 11 6 12 -9 0 -13 2 -15 6 -4 29 83 73 130 122
130 18 0 20 4 15 24 -6 25 8 58 55 133 29 47 45 53 63 23 22 -34 29 -22 12 20
-14 34 -14 41 -2 54 20 20 43 105 32 116 -5 5 -33 -35 -65 -93z m-109 -212
c-7 -8 -17 -15 -23 -15 -5 0 -2 9 8 20 21 23 35 19 15 -5z m-33 -47 c-3 -8 -6
-5 -6 6 -1 11 2 17 5 13 3 -3 4 -12 1 -19z"/>
<path d="M5463 2385 c-11 -8 -23 -24 -26 -36 -5 -19 -4 -20 12 -5 30 27 42 21
43 -24 1 -3 -2 -20 -6 -38 -5 -29 -3 -33 13 -27 14 4 20 -1 24 -25 4 -16 4
-38 1 -47 -5 -15 -4 -16 5 -3 14 20 14 73 -1 88 -8 8 -8 15 1 26 10 12 9 13
-10 9 -17 -5 -20 -3 -14 8 5 7 10 31 11 51 2 42 -15 50 -53 23z"/>
<path d="M3917 2363 c-4 -3 -7 -14 -7 -24 0 -17 -30 -22 -221 -33 -91 -5 -119
-24 -119 -82 0 -51 15 -59 24 -13 3 17 10 28 15 24 5 -3 12 -1 16 5 4 6 65 10
155 10 166 0 187 7 175 60 -5 22 -2 29 12 33 14 4 13 5 -4 6 -13 0 -23 6 -23
11 0 11 -13 13 -23 3z"/>
<path d="M4035 2339 c22 -4 65 -8 95 -9 30 0 86 -7 125 -15 38 -8 85 -15 104
-15 29 0 32 2 20 16 -8 9 -22 14 -37 11 -13 -3 -79 2 -145 9 -67 7 -140 13
-162 13 l-40 -1 40 -9z"/>
<path d="M2153 2235 c4 -43 7 -93 7 -112 0 -18 3 -33 8 -33 4 0 6 30 4 68 -2
37 -3 84 -2 104 0 20 -5 40 -11 44 -9 5 -11 -12 -6 -71z"/>
<path d="M4836 2254 c-9 -66 -8 -124 3 -124 11 0 22 152 11 163 -4 4 -10 -13
-14 -39z"/>
<path d="M3890 2228 c-30 -3 -59 -4 -64 -1 -5 4 -6 1 -2 -5 5 -8 39 -12 99
-11 90 1 232 14 212 18 -24 6 -195 6 -245 -1z"/>
<path d="M2817 2213 c-15 -15 -6 -43 13 -43 11 0 20 3 20 8 -1 14 -27 42 -33
35z"/>
<path d="M3423 2203 c-14 -5 -16 -34 -7 -70 7 -26 44 -39 43 -15 -1 36 -24 89
-36 85z"/>
<path d="M2850 2147 l-35 -22 35 -5 c28 -4 37 -1 43 14 12 31 -6 37 -43 13z"/>
<path d="M1327 2149 c-30 -18 -8 -29 59 -29 47 0 64 4 64 14 0 22 -91 33 -123
15z"/>
<path d="M1700 2023 c0 -25 4 -31 15 -27 19 8 19 15 0 40 -14 18 -14 17 -15
-13z"/>
<path d="M1770 2041 c0 -17 18 -21 24 -6 3 9 0 15 -9 15 -8 0 -15 -4 -15 -9z"/>
<path d="M3566 2021 c-6 -10 22 -37 29 -29 8 7 -5 38 -15 38 -5 0 -11 -4 -14
-9z"/>
<path d="M5510 1984 c0 -17 18 -36 30 -32 7 2 4 10 -9 22 -12 11 -21 15 -21
10z"/>
<path d="M3782 1822 c-2 -103 -2 -103 20 -96 12 4 45 10 73 14 l50 8 -55 1
c-30 1 -60 5 -67 9 -7 5 -13 40 -16 87 -3 77 -3 76 -5 -23z"/>
<path d="M1710 1900 c-9 -6 -10 -10 -3 -10 6 0 16 -19 21 -42 6 -24 19 -79 31
-122 26 -100 28 -176 4 -176 -9 0 -25 7 -35 17 -17 15 -18 15 -18 -10 0 -19
-5 -27 -17 -27 -38 -1 12 -18 59 -21 64 -4 70 4 57 75 -6 32 -8 60 -5 63 3 3
16 3 30 -1 17 -4 28 -15 31 -34 20 -94 33 -127 50 -131 16 -3 16 -1 -3 24 -12
14 -24 46 -28 71 -3 24 -15 55 -25 68 -14 17 -15 26 -7 34 9 9 4 12 -20 12
-38 0 -44 10 -70 111 -24 95 -33 111 -52 99z"/>
<path d="M3556 1879 c-12 -58 -17 -181 -6 -174 5 3 10 27 10 53 0 26 4 63 9
83 5 21 5 43 0 50 -5 9 -9 6 -13 -12z"/>
<path d="M2108 1830 c-6 -37 -4 -44 9 -39 4 2 6 20 3 39 l-6 35 -6 -35z"/>
<path d="M4993 1820 c21 -180 42 -330 47 -330 15 0 -18 307 -37 340 -14 25
-14 25 -10 -10z"/>
<path d="M3410 1811 c0 -5 5 -13 10 -16 6 -3 10 -2 10 4 0 5 -4 13 -10 16 -5
3 -10 2 -10 -4z"/>
<path d="M4474 1761 c7 -11 66 -32 66 -24 0 3 -8 12 -17 19 -20 15 -57 19 -49
5z"/>
<path d="M3966 1729 c3 -5 20 -9 37 -9 l32 -1 -23 -19 -23 -19 48 0 c123 -1
336 -10 349 -15 16 -6 40 32 27 45 -5 5 -46 4 -98 -2 -118 -15 -253 -9 -268
11 -12 16 -91 24 -81 9z"/>
<path d="M2960 1710 c0 -4 42 -10 93 -13 50 -3 115 -13 142 -21 46 -15 51 -14
63 1 30 41 20 44 -143 41 -85 -1 -155 -5 -155 -8z"/>
<path d="M4904 1694 c-4 -14 -4 -59 -1 -98 7 -77 0 -95 -37 -97 -12 -1 -3 -5
19 -9 22 -5 43 -5 47 -1 5 4 10 53 13 108 5 95 4 103 -14 113 -18 9 -21 7 -27
-16z"/>
<path d="M4553 1646 c4 -10 7 -29 7 -42 0 -13 5 -24 11 -24 15 0 6 73 -10 78
-10 3 -12 0 -8 -12z"/>
<path d="M2090 1640 c-11 -7 -7 -10 17 -10 17 0 35 5 38 10 8 13 -35 13 -55 0z"/>
<path d="M3110 1619 c-19 -10 -43 -19 -52 -19 -10 0 -18 -4 -18 -10 0 -18 51
-12 149 16 11 3 11 7 1 19 -16 20 -37 18 -80 -6z"/>
<path d="M4430 1630 c0 -5 4 -10 9 -10 6 0 13 5 16 10 3 6 -1 10 -9 10 -9 0
-16 -4 -16 -10z"/>
<path d="M4471 1613 c-1 -17 4 -35 9 -38 6 -4 8 -11 4 -16 -3 -5 -11 -6 -17
-2 -7 4 -37 8 -67 9 -30 1 -84 7 -120 13 -146 25 -438 49 -607 50 -111 1 -123
-1 -133 -18 -5 -11 -10 -21 -10 -23 0 -2 114 -3 253 -3 157 0 273 -5 307 -12
86 -19 347 -46 374 -39 18 4 28 1 35 -11 9 -16 10 -15 11 8 0 14 -5 30 -11 36
-6 6 -15 26 -19 45 l-8 33 -1 -32z"/>
<path d="M4628 1633 c-2 -5 -1 -28 2 -53 l5 -45 13 47 c6 26 12 49 12 52 0 9
-28 7 -32 -1z"/>
<path d="M4805 1622 c-5 -4 -10 -48 -10 -98 0 -78 2 -88 14 -76 10 10 27 12
58 7 28 -4 43 -2 43 4 0 6 -17 11 -39 11 -55 0 -65 17 -58 95 4 36 5 65 4 65
-1 0 -6 -4 -12 -8z"/>
<path d="M895 1590 c-4 -6 -14 -9 -22 -6 -11 5 -13 2 -9 -9 3 -9 2 -13 -4 -10
-5 3 -18 -11 -29 -32 l-19 -38 28 0 c24 0 29 5 34 34 3 18 13 39 23 46 10 7
15 16 11 20 -3 3 -9 1 -13 -5z"/>
<path d="M3452 1550 c0 -14 2 -19 5 -12 2 6 2 18 0 25 -3 6 -5 1 -5 -13z"/>
<path d="M3918 1529 c-10 -5 -72 -11 -137 -12 -75 -1 -114 -5 -104 -11 9 -5
64 -6 122 -3 60 3 89 2 66 -3 l-40 -7 45 -2 c25 -1 55 -4 68 -7 12 -4 22 -2
22 4 0 6 -8 13 -17 15 -10 2 -7 3 7 2 14 -2 34 2 45 8 19 10 19 11 -5 18 -36
10 -53 10 -72 -2z"/>
<path d="M1610 1520 c0 -5 5 -10 10 -10 6 0 10 5 10 10 0 6 -4 10 -10 10 -5 0
-10 -4 -10 -10z"/>
<path d="M5040 1460 c0 -12 -9 -24 -21 -28 -21 -8 -21 -9 5 -25 l26 -17 0 45
c0 25 -2 45 -5 45 -3 0 -5 -9 -5 -20z"/>
<path d="M2710 1460 c0 -5 7 -10 16 -10 8 0 12 5 9 10 -3 6 -10 10 -16 10 -5
0 -9 -4 -9 -10z"/>
<path d="M2575 1450 c-2 -3 3 -14 11 -24 12 -17 14 -17 20 -3 8 22 57 22 78 1
15 -14 16 -14 16 5 0 12 -6 22 -12 23 -34 4 -110 3 -113 -2z"/>
<path d="M2772 1453 c-6 -2 -10 -9 -6 -14 8 -14 40 -11 54 6 10 13 9 15 -11
14 -13 0 -30 -3 -37 -6z"/>
<path d="M3367 1450 c-20 -4 -41 -10 -45 -15 -11 -12 79 2 91 14 12 12 10 12
-46 1z"/>
<path d="M5877 2103 c-4 -3 -7 -11 -7 -17 0 -6 5 -5 12 2 6 6 9 14 7 17 -3 3
-9 2 -12 -2z"/>
<path d="M5450 1805 c0 -11 33 -60 57 -83 13 -13 23 -31 23 -42 0 -10 5 -22
10 -25 13 -8 13 -5 -4 41 -11 33 -86 127 -86 109z"/>
<path d="M5824 1405 c-4 -9 -1 -29 6 -45 7 -16 10 -37 6 -45 -3 -9 0 -25 7
-36 10 -17 9 -22 -6 -34 -14 -10 -15 -14 -5 -19 7 -3 0 -4 -16 -3 -16 1 -31
-4 -33 -11 -4 -10 2 -11 24 -5 15 4 45 8 66 8 40 0 44 9 28 65 -7 24 -7 24
-19 5 -6 -11 -12 -16 -12 -12 0 5 7 22 17 37 16 27 15 29 -16 69 -36 46 -39
47 -47 26z m60 -166 c-3 -5 -10 -7 -15 -3 -5 3 -7 10 -3 15 3 5 10 7 15 3 5
-3 7 -10 3 -15z"/>
<path d="M5860 1060 c0 -5 6 -10 14 -10 8 0 18 5 21 10 3 6 -3 10 -14 10 -12
0 -21 -4 -21 -10z"/>
</g>
</svg>
